HIERARCHY
ROOT hip
{
  OFFSET 0 0 0
  CHANNELS 6 Xposition Yposition Zposition Zrotation Yrotation Xrotation
  JOINT abdomen
  {
    OFFSET 0 20.6881 -0.73152
    CHANNELS 3 Zrotation Xrotation Yrotation
    JOINT chest
    {
      OFFSET 0 11.7043 -0.48768
      CHANNELS 3 Zrotation Xrotation Yrotation
      JOINT neck
      {
        OFFSET 0 22.1894 -2.19456
        CHANNELS 3 Zrotation Xrotation Yrotation
        JOINT head
        {
          OFFSET -0.24384 7.07133 1.2192
          CHANNELS 3 Zrotation Xrotation Yrotation
          JOINT leftEye
          {
            OFFSET 4.14528 8.04674 8.04672
            CHANNELS 3 Zrotation Xrotation Yrotation
            End Site
            {
              OFFSET 1 0 0
            }
          }
          JOINT rightEye
          {
            OFFSET -3.6576 8.04674 8.04672
            CHANNELS 3 Zrotation Xrotation Yrotation
            End Site
            {
              OFFSET 1 0 0
            }
          }
        }
      }
      JOINT rCollar
      {
        OFFSET -2.68224 19.2634 -4.8768
        CHANNELS 3 Zrotation Xrotation Yrotation
        JOINT rShldr
        {
          OFFSET -8.77824 -1.95073 1.46304
          CHANNELS 3 Zrotation Xrotation Yrotation
          JOINT rForeArm
          {
            OFFSET -28.1742 -1.7115 0.48768
            CHANNELS 3 Zrotation Xrotation Yrotation
            JOINT rHand
            {
              OFFSET -22.5879 0.773209 7.07136
              CHANNELS 3 Zrotation Xrotation Yrotation
              JOINT rThumb1
              {
                OFFSET -1.2192 -0.487915 3.41376
                CHANNELS 3 Zrotation Xrotation Yrotation
                JOINT rThumb2
                {
                  OFFSET -3.37035 -0.52449 3.41376
                  CHANNELS 3 Zrotation Xrotation Yrotation
                  End Site
                  {
                    OFFSET -1.78271 -1.18214 1.43049
                  }
                }
              }
              JOINT rIndex1
              {
                OFFSET -7.75947 0.938293 5.60832
                CHANNELS 3 Zrotation Xrotation Yrotation
                JOINT rIndex2
                {
                  OFFSET -2.54057 -0.884171 1.56538
                  CHANNELS 3 Zrotation Xrotation Yrotation
                  End Site
                  {
                    OFFSET -1.62519 -0.234802 1.16502
                  }
                }
              }
              JOINT rMid1
              {
                OFFSET -8.24714 1.18213 3.41376
                CHANNELS 3 Zrotation Xrotation Yrotation
                JOINT rMid2
                {
                  OFFSET -3.10165 -0.590103 1.0647
                  CHANNELS 3 Zrotation Xrotation Yrotation
                  End Site
                  {
                    OFFSET -2.48547 -0.328903 0.83742
                  }
                }
              }
              JOINT rRing1
              {
                OFFSET -8.82822 0.546677 1.51678
                CHANNELS 3 Zrotation Xrotation Yrotation
                JOINT rRing2
                {
                  OFFSET -2.60934 -0.819778 -0.0198488
                  CHANNELS 3 Zrotation Xrotation Yrotation
                  End Site
                  {
                    OFFSET -2.33842 -0.294052 0.168128
                  }
                }
              }
              JOINT rPinky1
              {
                OFFSET -8.27202 -0.0477905 -0.4584
                CHANNELS 3 Zrotation Xrotation Yrotation
                JOINT rPinky2
                {
                  OFFSET -1.82734 -0.647385 -0.700984
                  CHANNELS 3 Zrotation Xrotation Yrotation
                  End Site
                  {
                    OFFSET -1.69225 -0.51767 -0.607171
                  }
                }
              }
            }
          }
        }
      }
      JOINT lCollar
      {
        OFFSET 2.68224 19.2634 -4.8768
        CHANNELS 3 Zrotation Xrotation Yrotation
        JOINT lShldr
        {
          OFFSET 8.77824 -1.95073 1.46304
          CHANNELS 3 Zrotation Xrotation Yrotation
          JOINT lForeArm
          {
            OFFSET 28.1742 -1.7115 0.48768
            CHANNELS 3 Zrotation Xrotation Yrotation
            JOINT lHand
            {
              OFFSET 22.5879 0.773209 7.07136
              CHANNELS 3 Zrotation Xrotation Yrotation
              JOINT lThumb1
              {
                OFFSET 1.2192 -0.487915 3.41376
                CHANNELS 3 Zrotation Xrotation Yrotation
                JOINT lThumb2
                {
                  OFFSET 3.37035 -0.52449 3.41376
                  CHANNELS 3 Zrotation Xrotation Yrotation
                  End Site
                  {
                    OFFSET 1.78271 -1.18214 1.43049
                  }
                }
              }
              JOINT lIndex1
              {
                OFFSET 7.75947 0.938293 5.60832
                CHANNELS 3 Zrotation Xrotation Yrotation
                JOINT lIndex2
                {
                  OFFSET 2.54057 -0.884171 1.56538
                  CHANNELS 3 Zrotation Xrotation Yrotation
                  End Site
                  {
                    OFFSET 1.62519 -0.234802 1.16502
                  }
                }
              }
              JOINT lMid1
              {
                OFFSET 8.24714 1.18213 3.41376
                CHANNELS 3 Zrotation Xrotation Yrotation
                JOINT lMid2
                {
                  OFFSET 3.10165 -0.590103 1.0647
                  CHANNELS 3 Zrotation Xrotation Yrotation
                  End Site
                  {
                    OFFSET 2.48547 -0.328903 0.83742
                  }
                }
              }
              JOINT lRing1
              {
                OFFSET 8.82822 0.546677 1.51678
                CHANNELS 3 Zrotation Xrotation Yrotation
                JOINT lRing2
                {
                  OFFSET 2.60934 -0.819778 -0.0198488
                  CHANNELS 3 Zrotation Xrotation Yrotation
                  End Site
                  {
                    OFFSET 2.33842 -0.294052 0.168128
                  }
                }
              }
              JOINT lPinky1
              {
                OFFSET 8.27202 -0.0477905 -0.4584
                CHANNELS 3 Zrotation Xrotation Yrotation
                JOINT lPinky2
                {
                  OFFSET 1.82734 -0.647385 -0.700984
                  CHANNELS 3 Zrotation Xrotation Yrotation
                  End Site
                  {
                    OFFSET 1.69225 -0.51767 -0.607171
                  }
                }
              }
            }
          }
        }
      }
    }
  }
  JOINT rButtock
  {
    OFFSET -8.77824 4.35084 1.2192
    CHANNELS 3 Zrotation Xrotation Yrotation
    JOINT rThigh
    {
      OFFSET 0 -1.70687 -2.19456
      CHANNELS 3 Zrotation Xrotation Yrotation
      JOINT rShin
      {
        OFFSET 0 -36.8199 0.73152
        CHANNELS 3 Zrotation Xrotation Yrotation
        JOINT rFoot
        {
          OFFSET 0.73152 -45.1104 -5.12064
          CHANNELS 3 Zrotation Xrotation Yrotation
          End Site
          {
            OFFSET -1.1221 -3.69964 12.103
          }
        }
      }
    }
  }
  JOINT lButtock
  {
    OFFSET 8.77824 4.35084 1.2192
    CHANNELS 3 Zrotation Xrotation Yrotation
    JOINT lThigh
    {
      OFFSET 0 -1.70687 -2.19456
      CHANNELS 3 Zrotation Xrotation Yrotation
      JOINT lShin
      {
        OFFSET 0 -36.8199 0.73152
        CHANNELS 3 Zrotation Xrotation Yrotation
        JOINT lFoot
        {
          OFFSET -0.73152 -45.1104 -5.12064
          CHANNELS 3 Zrotation Xrotation Yrotation
          End Site
          {
            OFFSET 1.1221 -3.69964 12.103
          }
        }
      }
    }
  }
}
MOTION
Frames:	6
Frame Time:	0.00833333
57.4895 86.7011 -31.8133 -178.532 -9.8052 179.289 3.6797 -0.0810181 -0.645419 1.7019 -7.73984 0.287324 -8.67846 6.81106 -4.85917 13.5634 -3.52191 -9.49518 -0.0 0.0 0.0 -0.0 0.0 0.0 8.7252e-14 -4.612e-14 -9.84978e-14 83.8678 35.9885 -15.3701 -15.4407 -8.17776 28.5006 -0.239054 13.7898 1.97672 -4.07e-10 1.42788e-09 -8.26699e-10 -7.12472e-10 2.47058e-09 -1.42443e-09 -4.06998e-10 1.42787e-09 -8.26712e-10 7.73091 5.47488 0.417314 -4.06994e-10 1.42787e-09 -8.26699e-10 2.90554 0.965183 0.102902 -4.06994e-10 1.42787e-09 -8.267e-10 10.2786 0.731801 0.0259123 -4.07008e-10 1.42787e-09 -8.26687e-10 2.22167 -0.733487 -0.20892 8.72867e-14 -4.61153e-14 -9.86469e-14 -87.5505 32.5333 19.067 16.4099 -9.07366 -30.5427 0.511398 19.8947 -2.91534 -4.6175e-10 -8.72894e-10 -6.65442e-10 -8.07301e-10 -1.51171e-09 -1.1409e-09 -4.61756e-10 -8.72892e-10 -6.65432e-10 -7.73091 5.47488 -0.417314 -4.61745e-10 -8.72894e-10 -6.65448e-10 -2.90554 0.965183 -0.102902 -4.61757e-10 -8.72897e-10 -6.65445e-10 -10.2786 0.731801 -0.0259123 -4.61751e-10 -8.72894e-10 -6.65452e-10 -2.22167 -0.733487 0.20892 -2.03217e-16 0.0 -3.88251e-19 17.049 -17.2907 23.0815 -0.0911587 24.0158 -0.655522 -6.61912 -9.07756 -35.6357 2.03217e-16 0.0 3.88251e-19 4.59704 -0.340283 -5.55106 0.458713 42.0035 -0.493777 1.39311 23.4492 -6.6296
57.6294 86.6557 -32.5494 -178.446 -10.0422 179.151 4.26511 0.0273694 -0.625765 1.65619 -7.69118 0.32026 -8.78028 6.84963 -4.94183 13.7051 -3.43008 -9.67363 -0.0 0.0 0.0 -0.0 0.0 0.0 2.33753e-14 7.85579e-15 -2.30897e-14 83.7692 36.4451 -15.2378 -15.5506 -8.27619 28.7296 -0.23173 13.5816 1.94572 1.88458e-10 4.03519e-10 -3.56515e-10 3.21698e-10 7.05598e-10 -6.19363e-10 1.88459e-10 4.03518e-10 -3.56528e-10 7.73091 5.47488 0.417314 1.88463e-10 4.03514e-10 -3.56515e-10 2.90554 0.965183 0.102902 1.88464e-10 4.03516e-10 -3.56517e-10 10.2786 0.731801 0.0259123 1.8845e-10 4.03517e-10 -3.56504e-10 2.22167 -0.733487 -0.20892 2.3412e-14 7.86132e-15 -2.32135e-14 -87.2624 32.6001 19.2559 16.6009 -9.2542 -30.9594 0.449353 18.7684 -2.7363 -2.84105e-10 -4.08763e-10 -1.04184e-10 -4.93784e-10 -7.04606e-10 -1.72664e-10 -2.8411e-10 -4.0876e-10 -1.04176e-10 -7.73091 5.47488 -0.417314 -2.841e-10 -4.08762e-10 -1.0419e-10 -2.90554 0.965183 -0.102902 -2.84113e-10 -4.08764e-10 -1.04187e-10 -10.2786 0.731801 -0.0259123 -2.84106e-10 -4.08763e-10 -1.04192e-10 -2.22167 -0.733487 0.20892 -2.03217e-16 0.0 -3.88251e-19 17.6249 -16.9659 22.6434 -0.103147 24.0597 -0.661071 -5.70665 -8.239 -35.3184 2.03217e-16 0.0 3.88251e-19 5.32705 -1.85439 -5.33826 0.509685 44.1677 -0.559586 1.54856 24.8031 -6.81446
57.7987 86.5717 -33.2393 -178.277 -10.2556 179.062 4.88723 0.116534 -0.649445 1.60301 -7.61121 0.339642 -8.87429 6.86194 -5.03056 13.825 -3.30487 -9.8677 -0.0 0.0 0.0 -0.0 0.0 0.0 -7.2162e-14 7.91628e-14 6.09927e-14 83.6329 36.8777 -15.0441 -15.6555 -8.37116 28.9484 -0.224747 13.3811 1.9159 9.81552e-10 -1.06815e-09 3.6256e-10 1.69983e-09 -1.8314e-09 6.13694e-10 9.81553e-10 -1.06815e-09 3.62547e-10 7.73091 5.47488 0.417314 9.81557e-10 -1.06815e-09 3.62563e-10 2.90554 0.965183 0.102902 9.81559e-10 -1.06815e-09 3.62558e-10 10.2786 0.731801 0.0259123 9.81546e-10 -1.06815e-09 3.62568e-10 2.22167 -0.733487 -0.20892 -7.21356e-14 7.91696e-14 6.0884e-14 -86.8673 32.6634 19.2301 16.728 -9.37844 -31.2321 0.382021 17.3867 -2.52093 1.49824e-10 4.01531e-10 6.99433e-10 2.65116e-10 7.00711e-10 1.2104e-09 1.49821e-10 4.01534e-10 6.99439e-10 -7.73091 5.47488 -0.417314 1.49829e-10 4.01533e-10 6.99429e-10 -2.90554 0.965183 -0.102902 1.49815e-10 4.01532e-10 6.99431e-10 -10.2786 0.731801 -0.0259123 1.49823e-10 4.01533e-10 6.99428e-10 -2.22167 -0.733487 0.20892 -2.03217e-16 0.0 -3.88251e-19 18.2417 -16.6664 22.2855 -0.117092 24.1034 -0.655007 -4.75682 -7.30953 -35.0971 2.03217e-16 0.0 3.88251e-19 6.06063 -3.43062 -5.19505 0.566837 46.3273 -0.629456 1.62031 26.0529 -6.74914
58.0376 86.4951 -33.895 -177.836 -10.4093 179.021 5.49272 0.194958 -0.669113 1.54319 -7.52874 0.357564 -8.94972 6.89984 -5.11239 13.9187 -3.21959 -10.048 -0.0 0.0 0.0 -0.0 0.0 0.0 -1.61095e-13 1.42494e-13 1.30121e-13 83.4466 37.2627 -14.7865 -15.7419 -8.44985 29.1292 -0.219164 13.218 1.89168 1.68684e-09 -2.44714e-09 1.04738e-09 2.92586e-09 -4.20954e-09 1.78877e-09 1.68684e-09 -2.44714e-09 1.04736e-09 7.73091 5.47488 0.417314 1.68685e-09 -2.44715e-09 1.04738e-09 2.90554 0.965183 0.102902 1.68685e-09 -2.44714e-09 1.04737e-09 10.2786 0.731801 0.0259123 1.68684e-09 -2.44714e-09 1.04738e-09 2.22167 -0.733487 -0.20892 -1.6108e-13 1.42502e-13 1.3002e-13 -86.4114 32.6473 19.0745 16.8192 -9.47023 -31.4242 0.319159 15.9134 -2.29572 5.67791e-10 1.16063e-09 1.43981e-09 9.95593e-10 2.01649e-09 2.48393e-09 5.6779e-10 1.16064e-09 1.43982e-09 -7.73091 5.47488 -0.417314 5.67796e-10 1.16064e-09 1.43981e-09 -2.90554 0.965183 -0.102902 5.67782e-10 1.16064e-09 1.43981e-09 -10.2786 0.731801 -0.0259123 5.67791e-10 1.16064e-09 1.43981e-09 -2.22167 -0.733487 0.20892 -2.03217e-16 0.0 -3.88251e-19 18.8397 -16.3525 21.9601 -0.130788 24.1326 -0.640798 -3.93199 -6.51692 -34.946 2.03217e-16 0.0 3.88251e-19 6.74648 -5.0222 -5.07296 0.629701 48.4564 -0.70472 1.61327 26.9561 -6.56247
58.2621 86.4367 -34.5888 -177.389 -10.5785 178.934 6.02796 0.271127 -0.63742 1.47757 -7.47259 0.386117 -8.99555 7.01518 -5.17434 13.9808 -3.24742 -10.1852 -0.0 0.0 0.0 -0.0 0.0 0.0 -2.05158e-13 1.72541e-13 1.60668e-13 83.1984 37.5759 -14.4632 -15.7966 -8.49963 29.2444 -0.215952 13.122 1.87745 2.01889e-09 -3.19349e-09 1.41478e-09 3.50372e-09 -5.49795e-09 2.41991e-09 2.01889e-09 -3.19349e-09 1.41477e-09 7.73091 5.47488 0.417314 2.0189e-09 -3.19349e-09 1.41479e-09 2.90554 0.965183 0.102902 2.0189e-09 -3.19349e-09 1.41478e-09 10.2786 0.731801 0.0259123 2.01889e-09 -3.19349e-09 1.41478e-09 2.22167 -0.733487 -0.20892 -2.05147e-13 1.7255e-13 1.60568e-13 -85.9426 32.4755 18.8753 16.9013 -9.55234 -31.5994 0.265491 14.5127 -2.08486 6.97551e-10 1.47119e-09 1.81136e-09 1.22384e-09 2.55496e-09 3.12356e-09 6.97551e-10 1.47119e-09 1.81136e-09 -7.73091 5.47488 -0.417314 6.97556e-10 1.47119e-09 1.81136e-09 -2.90554 0.965183 -0.102902 6.97542e-10 1.47119e-09 1.81136e-09 -10.2786 0.731801 -0.0259123 6.97551e-10 1.47119e-09 1.81136e-09 -2.22167 -0.733487 0.20892 -2.03217e-16 0.0 -3.88251e-19 19.3615 -15.9834 21.6203 -0.141996 24.1332 -0.621926 -3.39409 -6.08845 -34.8313 2.03217e-16 0.0 3.88251e-19 7.33819 -6.58276 -4.92287 0.697867 50.5291 -0.786739 1.54941 27.2686 -6.38932
58.4085 86.3685 -35.3074 -177.143 -10.7256 178.779 6.49135 0.34379 -0.54773 1.40352 -7.44943 0.426692 -9.00083 7.25499 -5.20462 14.0061 -3.46227 -10.2508 -0.0 0.0 0.0 -0.0 0.0 0.0 -1.76011e-13 1.47904e-13 1.276e-13 82.8713 37.8034 -14.0606 -15.8161 -8.51715 29.2862 -0.215525 13.1078 1.87535 1.73908e-09 -2.96091e-09 1.29345e-09 3.01941e-09 -5.10114e-09 2.21408e-09 1.73908e-09 -2.96091e-09 1.29344e-09 7.73091 5.47488 0.417314 1.73908e-09 -2.96091e-09 1.29345e-09 2.90554 0.965183 0.102902 1.73909e-09 -2.96091e-09 1.29345e-09 10.2786 0.731801 0.0259123 1.73908e-09 -2.96091e-09 1.29345e-09 2.22167 -0.733487 -0.20892 -1.75984e-13 1.47913e-13 1.27499e-13 -85.4702 32.1369 18.6383 16.9867 -9.63686 -31.7856 0.214915 13.1282 -1.87829 3.31994e-10 1.04421e-09 1.59587e-09 5.8954e-10 1.81548e-09 2.75452e-09 3.31993e-10 1.04421e-09 1.59587e-09 -7.73091 5.47488 -0.417314 3.31997e-10 1.04421e-09 1.59587e-09 -2.90554 0.965183 -0.102902 3.31986e-10 1.04421e-09 1.59587e-09 -10.2786 0.731801 -0.0259123 3.31995e-10 1.04421e-09 1.59587e-09 -2.22167 -0.733487 0.20892 -2.03217e-16 0.0 -3.88251e-19 19.7965 -15.5327 21.245 -0.15062 24.0786 -0.597312 -3.20241 -6.12027 -34.7626 2.03217e-16 0.0 3.88251e-19 7.83435 -8.11123 -4.73938 0.773914 52.5738 -0.877492 1.41522 26.8154 -6.22016
